<svg width="173" height="62" viewBox="0 0 173 62" fill="none" xmlns="http://www.w3.org/2000/svg">
<path d="M17.9717 26.691C17.9235 27.8213 17.8995 29.2523 17.8995 30.9838C17.8995 32.7153 17.9235 34.1582 17.9717 35.3126C18.0197 36.443 18.1158 37.3447 18.2602 38.0182C18.4285 38.6915 18.657 39.1604 18.9456 39.425C19.2582 39.6895 19.667 39.8218 20.1721 39.8218C20.6771 39.8218 21.0739 39.6895 21.3625 39.425C21.6752 39.1604 21.9037 38.6915 22.048 38.0182C22.2163 37.3447 22.3245 36.443 22.3726 35.3126C22.4208 34.1582 22.4448 32.7153 22.4448 30.9838C22.4448 29.2523 22.4208 27.8213 22.3726 26.691C22.3245 25.5366 22.2163 24.6227 22.048 23.9494C21.9037 23.276 21.6752 22.8071 21.3625 22.5426C21.0739 22.2779 20.6771 22.1456 20.1721 22.1456C19.667 22.1456 19.2582 22.2779 18.9456 22.5426C18.657 22.8071 18.4285 23.276 18.2602 23.9494C18.1158 24.6227 18.0197 25.5366 17.9717 26.691Z" fill="#BCBBC9"/>
<path fill-rule="evenodd" clip-rule="evenodd" d="M19.2497 4.18601C10.5515 4.37214 3.63753 11.5499 3.77709 20.2489L3.94858 30.9372L3.77709 41.6254C3.63753 50.3246 10.5515 57.5023 19.2497 57.6883L29.9395 57.9171L40.6294 57.6883C49.3276 57.5023 56.2416 50.3246 56.1021 41.6254L55.9306 30.9372L56.1021 20.2489C56.2416 11.5499 49.3276 4.37214 40.6294 4.18601L29.9395 3.9574L19.2497 4.18601ZM30.3089 44.5473L26.2686 48.0465L22.5891 44.0784C22.3005 44.1265 22.0118 44.1627 21.7233 44.1867C21.4587 44.2347 21.1581 44.2589 20.8214 44.2589H20.1721C18.4646 44.2589 17.0216 44.0304 15.8432 43.5734C14.6648 43.1165 13.7149 42.3589 12.9935 41.3008C12.272 40.2186 11.7549 38.8357 11.4423 37.1523C11.1296 35.4448 10.9733 33.3885 10.9733 30.9837C10.9733 28.5788 11.1296 26.5346 11.4423 24.8511C11.7549 23.1436 12.272 21.7609 12.9935 20.7027C13.7149 19.6204 14.6648 18.8389 15.8432 18.3579C17.0216 17.8528 18.4646 17.6003 20.1721 17.6003C21.8796 17.6003 23.3225 17.8528 24.5009 18.3579C25.6793 18.8389 26.6294 19.6204 27.3508 20.7027C28.0723 21.7609 28.5894 23.1436 28.902 24.8511C29.2146 26.5346 29.371 28.5788 29.371 30.9837C29.371 33.4607 29.2026 35.553 28.8659 37.2605C28.5292 38.968 27.9761 40.3629 27.2065 41.4451L30.3089 44.5473ZM41.696 27.3763V25.9334C41.696 24.4663 41.5517 23.4683 41.2631 22.9393C40.9746 22.4102 40.5056 22.1456 39.8562 22.1456C39.3512 22.1456 38.9424 22.2779 38.6298 22.5425C38.3412 22.807 38.1127 23.2759 37.9444 23.9494C37.8001 24.6227 37.7039 25.5366 37.6557 26.691C37.6076 27.8212 37.5836 29.2522 37.5836 30.9837C37.5836 32.7152 37.6076 34.1581 37.6557 35.3125C37.7039 36.4429 37.8001 37.3447 37.9444 38.0181C38.1127 38.6914 38.3412 39.1603 38.6298 39.425C38.9424 39.6894 39.3512 39.8218 39.8562 39.8218C40.265 39.8218 40.6018 39.7256 40.8663 39.5331C41.1309 39.3167 41.3352 38.968 41.4796 38.487C41.6239 38.0061 41.72 37.3687 41.7682 36.5751C41.8403 35.7575 41.8764 34.7354 41.8764 33.5088H48.3696V35.4208C48.3696 37.2245 48.1291 38.7035 47.6482 39.8578C47.1672 41.0122 46.5299 41.9261 45.7363 42.5994C44.9426 43.2488 44.0288 43.6816 42.9946 43.8981C41.9847 44.1385 40.9384 44.2589 39.8562 44.2589C37.9804 44.2589 36.4413 44.0304 35.2388 43.5734C34.0364 43.1165 33.0985 42.3589 32.4251 41.3008C31.7516 40.2186 31.2827 38.8357 31.0182 37.1523C30.7777 35.4448 30.6574 33.3885 30.6574 30.9837C30.6574 28.5306 30.8017 26.4505 31.0903 24.743C31.403 23.0355 31.9201 21.6526 32.6415 20.5945C33.363 19.5363 34.3129 18.7787 35.4913 18.3217C36.6697 17.8408 38.1247 17.6003 39.8562 17.6003C41.3714 17.6003 42.658 17.7928 43.7162 18.1776C44.7743 18.5624 45.628 19.1155 46.2774 19.8369C46.9507 20.5344 47.4317 21.3881 47.7203 22.3982C48.033 23.3841 48.1893 24.5025 48.1893 25.753V27.3763H41.696Z" fill="#BCBBC9"/>
<path fill-rule="evenodd" clip-rule="evenodd" d="M87.6269 22.3416L93.508 28.4447L99.389 22.3416H109.607L98.6091 32.8041L109.607 43.2664H99.389L93.508 37.1478L87.6269 43.2664H77.3936L88.3914 32.8041L77.3936 22.3416H87.6269ZM87.06 32.8041L75.0986 21.4249H88.0179L93.508 27.1222L98.998 21.4249H111.456V21.4094H132.57C137.399 21.36 141.485 25.3974 141.419 30.2417C141.418 31.9842 140.947 33.5904 140.004 35.02C139.294 36.1021 138.395 36.9924 137.317 37.6693L141.819 43.45V39.7011C141.819 36.7639 144.014 34.8913 146.539 33.6495C149.089 32.3958 152.306 31.6125 154.985 30.9788L154.989 30.9778L155.02 30.9702C156.671 30.564 158.078 30.2183 159.079 29.8453C159.585 29.6563 159.918 29.4852 160.108 29.3398C160.131 29.3214 160.151 29.305 160.168 29.2909C160.11 29.2376 159.992 29.1581 159.758 29.0664C159.213 28.8531 158.283 28.6924 156.874 28.692C155.369 28.7076 154.09 28.83 153.216 29.1363C152.786 29.2873 152.527 29.4594 152.38 29.6208C152.256 29.7595 152.182 29.924 152.189 30.182L152.211 31.1207H142.146V30.204C142.146 28.3221 142.516 26.7486 143.254 25.4594C143.997 24.1644 145.079 23.2189 146.398 22.5407C148.986 21.2101 152.552 20.88 156.528 20.88C160.598 20.88 163.978 21.3498 166.371 22.5591C167.582 23.172 168.566 23.9877 169.243 25.0484C169.921 26.1119 170.253 27.3638 170.253 28.7872C170.253 31.4215 168.664 33.0993 166.715 34.1929C164.824 35.2546 162.443 35.8576 160.465 36.34H169.91V44.152H142.365L142.377 44.1676H131.344L127.397 39.0609H121.467V44.1676H111.885L111.902 44.1832H98.9973L93.508 38.472L88.0186 44.1832H75.0986L87.06 32.8041ZM111.456 43.7587V21.8493L99.9404 32.8041L111.456 43.7587ZM127.849 38.1442L131.796 43.2508H140.5L135.929 37.3812C136.215 37.2487 136.488 37.102 136.751 36.9416C137.751 36.3292 138.582 35.5157 139.236 34.5166C140.079 33.2399 140.5 31.8076 140.5 30.2351C140.563 25.9069 136.897 22.2794 132.576 22.3261H112.374V43.2508H120.548V38.1442H127.849ZM155.654 37.2567C155.941 36.9067 156.459 36.6091 157.148 36.34C157.959 36.0224 159.004 35.7443 160.178 35.4664C164.202 34.4854 169.335 33.1465 169.335 28.7872C169.335 23.6806 164.593 21.7967 156.528 21.7967C148.944 21.7967 143.566 23.0322 143.099 29.2872C143.076 29.5816 143.064 29.887 143.064 30.204H151.271C151.269 30.1695 151.269 30.1354 151.271 30.1019C151.316 28.242 153.883 27.8058 156.871 27.7752C159.787 27.7752 161.129 28.4291 161.129 29.3166C161.129 30.412 158.541 31.0488 155.29 31.8481L155.202 31.8698C149.804 33.1465 142.737 34.9214 142.737 39.7011V43.2352H168.991V37.2567H155.654ZM160.22 29.3612C160.22 29.3612 160.215 29.3554 160.212 29.3419C160.22 29.3541 160.22 29.3612 160.22 29.3612ZM131.392 30.2351C131.392 29.7451 131.007 29.3615 130.517 29.3615H121.467V31.0933H130.517C130.78 31.0933 130.965 31.0132 131.13 30.848C131.319 30.6599 131.392 30.4718 131.392 30.2351ZM132.311 30.2351C132.311 29.2387 131.515 28.4447 130.517 28.4447H120.548V32.0099H130.517C131.015 32.0099 131.437 31.8387 131.78 31.4963C132.139 31.1381 132.311 30.7178 132.311 30.2351Z" fill="#BCBBC9"/>
<path d="M78.1502 58.3622H82.0653V53.0016L85.9876 58.3622H87.9451L91.8676 53.0016V58.3622H95.7827V48.3137H90.8889L86.9665 53.338L83.0515 48.3137H78.1502V58.3622Z" fill="#BCBBC9"/>
<path d="M104.031 48.067C100.251 48.0745 97.1574 49.166 97.1723 52.9716V53.7043C97.1574 57.5024 100.251 58.6015 104.031 58.6089C107.803 58.6015 110.897 57.5024 110.882 53.7043V52.9716C110.882 49.1735 107.811 48.067 104.031 48.067ZM106.967 53.4576C106.99 55.1024 105.63 55.4015 104.031 55.4239C102.425 55.4015 101.065 55.1024 101.087 53.4576V53.2109C101.065 51.5734 102.425 51.2744 104.031 51.252C105.63 51.2744 106.99 51.5734 106.967 53.2109V53.4576Z" fill="#BCBBC9"/>
<path d="M121.85 53.3529C121.85 54.3622 121.275 55.1921 120.259 55.1921H115.97V51.5137H120.259C121.275 51.5137 121.85 52.336 121.85 53.3529ZM112.055 48.3287V58.3771H120.991C123.748 58.4145 125.795 56.0819 125.773 53.3529C125.795 50.609 123.748 48.2912 120.991 48.3287H112.055Z" fill="#BCBBC9"/>
<path d="M136.673 53.4651C136.695 55.1174 135.337 55.4015 133.737 55.4239C132.131 55.4015 130.779 55.1174 130.794 53.4651V48.3137H126.878V53.7118C126.864 57.5099 129.972 58.6015 133.737 58.6089C137.503 58.6015 140.611 57.5099 140.596 53.7118V48.3137H136.673V53.4651Z" fill="#BCBBC9"/>
<path d="M142.359 48.3137V58.3622H154.112V55.1773H146.274V48.3137H142.359Z" fill="#BCBBC9"/>
<path d="M155.448 58.3771H167.202V55.7978H159.364V54.5117H167.202V52.1866H159.364V50.9005H167.202V48.3287H155.448V58.3771Z" fill="#BCBBC9"/>
<path d="M80.4044 10.0329V7.91527H86.2071C86.4883 7.91527 86.733 8.01698 86.9324 8.22963C87.141 8.43317 87.2407 8.68275 87.2407 8.97864C87.2407 9.26542 87.141 9.51501 86.9324 9.72778C86.733 9.9312 86.4883 10.0329 86.2071 10.0329H80.4044ZM75.6534 4.28115V16.7094H80.4044V13.6763H87.3949C89.9064 13.7133 92.0371 11.5402 92.0009 8.97864C92.0371 6.40801 89.9064 4.25332 87.3949 4.28115H75.6534Z" fill="#BCBBC9"/>
<path d="M101.457 3.9574C96.8697 3.96663 93.1161 5.31678 93.1341 10.0236V10.9299C93.1161 15.6275 96.8697 16.9868 101.457 16.996C106.036 16.9868 109.79 15.6275 109.772 10.9299V10.0236C109.772 5.32601 106.045 3.9574 101.457 3.9574ZM105.02 10.6246C105.048 12.659 103.398 13.0289 101.457 13.0568C99.5081 13.0289 97.858 12.659 97.8852 10.6246V10.3195C97.858 8.29436 99.5081 7.92447 101.457 7.89677C103.398 7.92447 105.048 8.29436 105.02 10.3195V10.6246Z" fill="#BCBBC9"/>
<path d="M128.295 12.1505L125.475 4.28113H120.126L117.297 12.1505L114.477 4.28113H109.128L114.477 16.7094H120.126L122.801 10.4952L125.475 16.7094H131.123L136.474 4.28113H131.123L128.295 12.1505Z" fill="#BCBBC9"/>
<path d="M136.837 16.7094H151.098V13.5191H141.587V11.9285H151.098V9.05262H141.587V7.46212H151.098V4.28113H136.837V16.7094Z" fill="#BCBBC9"/>
<path d="M153.628 4.27175V16.7001H158.378V13.667H162.622L164.916 16.7001H169.975L167.318 13.2139C168.116 12.8347 168.76 12.2614 169.24 11.5124C169.731 10.7542 169.975 9.90346 169.975 8.96937C170.012 6.39861 167.88 4.24405 165.37 4.27175H153.628ZM164.172 7.906C164.752 7.906 165.215 8.3776 165.215 8.96937C165.215 9.25602 165.115 9.50574 164.907 9.71838C164.708 9.92193 164.462 10.0236 164.172 10.0236H158.378V7.906H164.172Z" fill="#BCBBC9"/>
</svg>
