<svg width="77" height="62" viewBox="0 0 77 62" fill="none" xmlns="http://www.w3.org/2000/svg">
<path d="M25.8187 21.3083C25.8187 21.1508 25.8187 18.8596 25.8187 18.8596H24.4571C24.4571 18.8596 24.4571 21.1153 24.4571 21.1865C24.4571 21.603 24.0711 21.8824 23.4208 21.8824C22.74 21.8824 22.3692 21.6131 22.3692 21.1813C22.3692 21.1102 22.3692 18.8596 22.3692 18.8596H20.9924C20.9924 18.8596 20.9924 20.9984 20.9924 21.1813C20.9924 22.3904 21.983 22.9036 23.3649 22.9036C24.8433 22.9036 25.8187 22.3854 25.8187 21.3083Z" fill="#BCBBC9"/>
<path d="M30.404 22.8477V21.7859H27.9756V18.8596H26.5988V22.8477H30.404Z" fill="#BCBBC9"/>
<path d="M34.4957 19.8605V18.8596H29.7354V19.8605H31.417V22.8477H32.809V19.8605H34.4957Z" fill="#BCBBC9"/>
<path d="M36.326 22.8477V18.8596H34.9289V22.8477H36.326Z" fill="#BCBBC9"/>
<path d="M42.7357 22.8477V18.8596H41.0134L39.9262 21.2525L38.8899 18.8596H37.1118V22.8477H38.4072V20.6937L39.342 22.8477H40.5004L41.4452 20.6937V22.8477H42.7357Z" fill="#BCBBC9"/>
<path d="M44.8935 22.111H47.0476L47.3982 22.8477H48.8663L46.8545 18.8596H45.2136L43.0849 22.8477H44.5226L44.8935 22.111ZM46.6157 21.2169H45.3406L45.8435 20.2567L45.9959 19.891L46.1382 20.2516L46.6157 21.2169Z" fill="#BCBBC9"/>
<path d="M53.1845 19.8605V18.8596H48.4245V19.8605H50.106V22.8477H51.4981V19.8605H53.1845Z" fill="#BCBBC9"/>
<path d="M57.8138 22.8477V21.857H54.9546V21.3388H57.6971V20.3685H54.9546V19.8553H57.7787V18.8596H53.6133V22.8477H57.8138Z" fill="#BCBBC9"/>
<path d="M31.3752 24.9677H30.0594C30.0594 24.9677 29.2008 27.4773 29.2008 27.5383C29.2008 27.4773 28.3981 24.9677 28.3981 24.9677H26.9705C26.9705 24.9677 26.1729 27.4773 26.1729 27.5383C26.1729 27.4773 25.3092 24.9677 25.3092 24.9677H23.8308L25.3245 28.9557H26.813C26.813 28.9557 27.6157 26.573 27.6208 26.507C27.6259 26.573 28.4235 28.9557 28.4235 28.9557H29.9171L31.3752 24.9677Z" fill="#BCBBC9"/>
<path d="M33.1756 28.9557V24.9677H31.7785V28.9557H33.1756Z" fill="#BCBBC9"/>
<path d="M38.6099 28.9557V24.9677H37.3093V27.1369L35.3941 24.9677H33.9613V28.9557H35.2721V26.7356L37.2484 28.9557H38.6099Z" fill="#BCBBC9"/>
<path d="M44.0523 28.9557V24.9677H42.7518V27.1369L40.8365 24.9677H39.4039V28.9557H40.7145V26.7356L42.6908 28.9557H44.0523Z" fill="#BCBBC9"/>
<path d="M49.0478 28.9557V27.965H46.1876V27.4468H48.9309V26.4765H46.1876V25.9634H49.0122V24.9677H44.8463V28.9557H49.0478Z" fill="#BCBBC9"/>
<path d="M54.4183 26.1818C54.4183 25.8212 54.3315 25.562 54.1486 25.3741C53.9099 25.1201 53.4987 24.9677 52.8683 24.9677H49.6935V28.9557H51.05V27.5485H52.2845L53.2755 28.9557H54.7893L53.5855 27.33C53.8541 27.2893 54.0732 27.1268 54.2148 26.9338C54.3419 26.7559 54.4183 26.4917 54.4183 26.1818ZM53.0977 26.3088C53.0977 26.3749 53.0874 26.4562 53.0512 26.5171C53.0006 26.6187 52.8683 26.6594 52.6503 26.6594H51.055V25.9329H52.6245C52.8384 25.9329 52.981 25.9684 53.0512 26.1006C53.0874 26.1513 53.0977 26.2327 53.0977 26.3088Z" fill="#BCBBC9"/>
<path d="M26.3914 32.8793C26.3914 32.8141 26.3914 30.9305 26.3914 30.9305H25.9158C25.9158 30.9305 25.9158 32.8064 25.9158 32.8486C25.9158 33.3012 25.4899 33.5583 24.8761 33.5583C24.1512 33.5583 23.7943 33.2821 23.7943 32.8448C23.7943 32.8025 23.7943 30.9305 23.7943 30.9305H23.3149C23.3149 30.9305 23.3149 32.7565 23.3149 32.8294C23.3149 33.6273 23.9363 33.9802 24.857 33.9802C25.8083 33.9802 26.3914 33.6043 26.3914 32.8793Z" fill="#BCBBC9"/>
<path d="M29.8044 33.9419V33.5008H27.7291V30.9305H27.2496V33.9419H29.8044Z" fill="#BCBBC9"/>
<path d="M32.5291 31.3678V30.9305H29.3297V31.3678H30.6877V33.9419H31.1711V31.3678H32.5291Z" fill="#BCBBC9"/>
<path d="M35.9387 31.7821C35.9387 31.5673 35.8926 31.41 35.8121 31.2834C35.6701 31.0724 35.3978 30.9305 34.9452 30.9305H32.9964V33.9419H33.4682V32.6721H34.8415L35.6816 33.9419H36.234L35.3249 32.5915C35.555 32.5648 35.7354 32.4342 35.8312 32.2655C35.9004 32.1504 35.9387 31.9816 35.9387 31.7821ZM35.463 31.8204C35.463 31.9049 35.4439 32.0085 35.4093 32.0775C35.348 32.1887 35.206 32.2463 34.9759 32.2501H33.472C33.472 32.2425 33.472 31.3602 33.472 31.3602H34.8876C35.1753 31.3602 35.3287 31.4292 35.4093 31.5596C35.4439 31.621 35.463 31.7246 35.463 31.8204Z" fill="#BCBBC9"/>
<path d="M37.3038 33.1977H39.1798L39.5633 33.9419H40.0774L38.5506 30.9305H37.9867L36.41 33.9419H36.9125L37.3038 33.1977ZM38.9802 32.7718H37.511L38.1209 31.6172L38.2552 31.3372L38.3895 31.6172L38.9802 32.7718Z" fill="#BCBBC9"/>
<path d="M44.9427 33.6542C45.0616 33.516 45.1153 33.3204 45.1153 33.1094C45.1153 32.91 45.0578 32.7105 44.9388 32.5877C44.8199 32.4727 44.6281 32.3768 44.4171 32.3576C44.5399 32.3384 44.6358 32.2617 44.701 32.1811C44.8046 32.0621 44.8659 31.8704 44.8659 31.6786C44.8659 31.4752 44.8046 31.2911 44.6741 31.1645C44.5322 31.0226 44.2905 30.9305 43.9529 30.9305H41.9274V33.9419H44.1026C44.5092 33.9419 44.793 33.8383 44.9427 33.6542ZM44.371 31.7745C44.371 31.9087 44.3289 32.0276 44.256 32.0967C44.1831 32.1773 44.0603 32.2118 43.9299 32.2118H42.3954V31.3448H43.8416C44.0181 31.3448 44.1524 31.3793 44.2444 31.4637C44.325 31.5404 44.371 31.6517 44.371 31.7745ZM44.5245 33.3626C44.4286 33.4701 44.2637 33.5238 44.022 33.5238H42.3954V32.63H44.0335C44.256 32.63 44.4095 32.6759 44.5015 32.7642C44.5859 32.8448 44.6205 32.9483 44.6205 33.0673C44.6205 33.19 44.5936 33.2936 44.5245 33.3626Z" fill="#BCBBC9"/>
<path d="M48.5979 33.9419V33.5008H46.2579V32.6414H48.5058V32.2041H46.2579V31.3678H48.571V30.9305H45.7898V33.9419H48.5979Z" fill="#BCBBC9"/>
<path d="M52.3455 33.0519C52.3455 32.5609 52.02 32.3077 51.2181 32.2157C51.0835 32.1965 50.7918 32.1658 50.6346 32.1466C49.8904 32.0584 49.6641 31.9587 49.6641 31.7017C49.6641 31.4523 49.9134 31.3103 50.6653 31.3103C51.2481 31.3103 51.5477 31.4255 51.6976 31.6325C51.7399 31.6901 51.7627 31.7592 51.774 31.8129H52.2876C52.2731 31.7246 52.238 31.6019 52.1843 31.5021C51.9776 31.1454 51.5519 30.8883 50.6653 30.8883C49.6065 30.8845 49.1692 31.2682 49.1692 31.7438C49.1692 32.2195 49.5106 32.4612 50.3968 32.5648C50.5503 32.5839 50.8225 32.6146 50.9569 32.63C51.6438 32.7143 51.8588 32.818 51.8588 33.1057C51.8588 33.3704 51.6128 33.5622 50.8264 33.5622C50.182 33.5622 49.8366 33.4471 49.6986 33.2246C49.6564 33.1632 49.6296 33.0673 49.6257 33.0021H49.1193C49.1309 33.1402 49.1692 33.2898 49.2382 33.4087C49.4378 33.7732 49.9058 33.9842 50.8111 33.9842C51.8929 33.9842 52.3455 33.635 52.3455 33.0519Z" fill="#BCBBC9"/>
<path d="M55.7854 31.3678V30.9305H52.5862V31.3678H53.944V33.9419H54.4276V31.3678H55.7854Z" fill="#BCBBC9"/>
<path d="M21.957 36.5593C21.957 36.2524 21.8956 36.0452 21.792 35.888C21.6463 35.6616 21.3623 35.5427 20.8674 35.5427H18.9648V38.5541H19.4404V37.572C19.4404 37.572 20.7831 37.572 20.8483 37.572C21.3125 37.5682 21.6309 37.4608 21.7997 37.2153C21.9071 37.0657 21.957 36.8508 21.957 36.5593ZM21.4736 36.5593C21.4736 36.7127 21.4582 36.8278 21.4084 36.9046C21.3201 37.0464 21.1398 37.1347 20.7677 37.1347C20.7332 37.1347 19.4404 37.1347 19.4404 37.1347V35.9724H20.7831C21.1322 35.9724 21.3125 36.0529 21.4084 36.2102C21.4544 36.2792 21.4736 36.4059 21.4736 36.5593Z" fill="#BCBBC9"/>
<path d="M25.4292 38.5541V38.1129H23.0891V37.2536H25.3371V36.8163H23.0891V35.98H25.4023V35.5427H22.6211V38.5541H25.4292Z" fill="#BCBBC9"/>
<path d="M29.0886 36.3943C29.0886 36.1795 29.0427 36.0222 28.9621 35.8956C28.8201 35.6846 28.5478 35.5427 28.0951 35.5427H26.1463V38.5541H26.6181V37.2843H27.9916L28.8317 38.5541H29.3841L28.4748 37.2037C28.7051 37.1769 28.8854 37.0464 28.9813 36.8777C29.0503 36.7626 29.0886 36.5938 29.0886 36.3943ZM28.613 36.4326C28.613 36.5171 28.5938 36.6207 28.5593 36.6897C28.4979 36.8009 28.3559 36.8585 28.1258 36.8623H26.622C26.622 36.8546 26.622 35.9724 26.622 35.9724H28.0375C28.3252 35.9724 28.4787 36.0414 28.5593 36.1718C28.5938 36.2332 28.613 36.3367 28.613 36.4326Z" fill="#BCBBC9"/>
<path d="M32.6452 35.98V35.5427H29.9675V38.5541H30.4431V37.2728H32.5455V36.824H30.4431V35.98H32.6452Z" fill="#BCBBC9"/>
<path d="M34.8285 35.489C34.1878 35.489 33.7467 35.6463 33.4321 35.9762C33.1674 36.2332 33.0523 36.59 33.0523 37.0388C33.0523 37.5298 33.2019 37.8981 33.4781 38.1475C33.7736 38.4429 34.2262 38.5962 34.8285 38.5962C35.4499 38.5962 35.9332 38.4429 36.221 38.1321C36.4704 37.8789 36.6008 37.5184 36.6008 37.035C36.6008 36.567 36.4895 36.2102 36.2248 35.957C35.9218 35.6425 35.4691 35.489 34.8285 35.489ZM34.8285 38.1667C34.4065 38.1667 34.1072 38.0746 33.8809 37.8905C33.6508 37.7025 33.5395 37.4147 33.5395 37.0465C33.5395 36.7012 33.6354 36.4135 33.8196 36.2409C34.0306 36.0414 34.3528 35.9225 34.8247 35.9225C35.3118 35.9225 35.6149 36.0376 35.8412 36.237C36.0331 36.4059 36.1174 36.705 36.1174 37.0426C36.1174 37.384 36.0292 37.6757 35.8335 37.852C35.6072 38.063 35.2889 38.1667 34.8285 38.1667Z" fill="#BCBBC9"/>
<path d="M40.2001 36.3943C40.2001 36.1795 40.154 36.0222 40.0735 35.8956C39.9315 35.6846 39.6591 35.5427 39.2065 35.5427H37.2578V38.5541H37.7296V37.2843H39.1029L39.9431 38.5541H40.4954L39.5863 37.2037C39.8164 37.1769 39.9967 37.0464 40.0926 36.8777C40.1617 36.7626 40.2001 36.5938 40.2001 36.3943ZM39.7243 36.4326C39.7243 36.5171 39.7052 36.6207 39.6707 36.6897C39.6093 36.8009 39.4673 36.8585 39.2372 36.8623H37.7334C37.7334 36.8546 37.7334 35.9724 37.7334 35.9724H39.149C39.4366 35.9724 39.5901 36.0414 39.6707 36.1718C39.7052 36.2332 39.7243 36.3367 39.7243 36.4326Z" fill="#BCBBC9"/>
<path d="M44.7885 38.5541V35.5427H44.167L42.928 38.0209L41.7118 35.5427H41.0789V38.5541H41.5354V36.237L42.6709 38.5541H43.1696L44.332 36.237V38.5541H44.7885Z" fill="#BCBBC9"/>
<path d="M46.1357 37.8099H48.0116L48.3951 38.5541H48.9092L47.3824 35.5427H46.8185L45.2418 38.5541H45.7443L46.1357 37.8099ZM47.812 37.384H46.3428L46.9527 36.2294L47.087 35.9493L47.2213 36.2294L47.812 37.384Z" fill="#BCBBC9"/>
<path d="M52.3651 38.5541V35.5427H51.9084V37.8827L49.914 35.5427H49.3731V38.5541H49.8373V36.1987L51.8474 38.5541H52.3651Z" fill="#BCBBC9"/>
<path d="M56.5036 37.4301H56.0045C55.989 37.5682 55.9353 37.7063 55.8392 37.8099C55.6325 38.0516 55.3029 38.1551 54.7965 38.1551C54.3708 38.1551 53.9141 38.0362 53.695 37.7255C53.5803 37.5798 53.5069 37.3649 53.5069 37.0426C53.5069 36.7549 53.5576 36.5401 53.6681 36.3943C53.8521 36.099 54.2396 35.9455 54.7852 35.9455C55.3142 35.9455 55.648 36.0912 55.8247 36.2946C55.9239 36.402 55.9818 36.5286 56.0004 36.6782H56.4995C56.484 36.5094 56.4302 36.3099 56.3155 36.1412C56.0696 35.7767 55.617 35.489 54.7883 35.489C53.9988 35.489 53.5266 35.7422 53.2651 36.1219C53.0967 36.3406 53.012 36.6475 53.012 37.0388C53.012 37.4761 53.1163 37.7984 53.2961 38.0247C53.5576 38.3815 54.0598 38.5962 54.8193 38.5962C55.5984 38.5962 56.0624 38.3623 56.2928 37.9902C56.423 37.8099 56.4881 37.595 56.5036 37.4301Z" fill="#BCBBC9"/>
<path d="M59.9363 38.5541V38.1129H57.5958V37.2536H59.8443V36.8163H57.5958V35.98H59.9094V35.5427H57.1277V38.5541H59.9363Z" fill="#BCBBC9"/>
<path d="M24.8534 41.5455L25.4271 43.3113H27.2837L25.7818 44.4026L26.3555 46.1683L24.8534 45.0771L23.3514 46.1683L23.9252 44.4026L22.4231 43.3113H24.2797L24.8534 41.5455Z" fill="#BCBBC9"/>
<path d="M31.4767 41.5457L32.062 43.3113H33.9566L32.4239 44.4026L33.0093 46.1684L31.4767 45.0771L29.944 46.1684L30.5294 44.4026L28.9968 43.3113H30.8913L31.4767 41.5457Z" fill="#BCBBC9"/>
<path d="M38.0475 41.5457L38.633 43.3113H40.5274L38.9948 44.4026L39.5803 46.1684L38.0475 45.0771L36.5149 46.1684L37.1003 44.4026L35.5676 43.3113H37.4621L38.0475 41.5457Z" fill="#BCBBC9"/>
<path d="M44.6186 41.5457L45.204 43.3113H47.0985L45.5659 44.4026L46.1512 46.1684L44.6186 45.0771L43.086 46.1684L43.6713 44.4026L42.1387 43.3113H44.0332L44.6186 41.5457Z" fill="#BCBBC9"/>
<path d="M51.2419 41.5457L51.8154 43.3113H53.6723L52.1698 44.4026L52.7433 46.1684L51.2419 45.0771L49.7397 46.1684L50.3135 44.4026L48.8115 43.3113H50.6681L51.2419 41.5457Z" fill="#BCBBC9"/>
<path d="M28.0714 11.7554L28.5052 13.0904H29.909L28.7734 13.9156L29.2072 15.2505L28.0714 14.4255L26.9358 15.2505L27.3696 13.9156L26.2339 13.0904H27.6377L28.0714 11.7554Z" fill="#BCBBC9"/>
<path d="M33.0793 11.7535L33.522 13.0886H34.9543L33.7955 13.9137L34.2381 15.2487L33.0793 14.4236L31.9204 15.2487L32.3631 13.9137L31.2042 13.0886H32.6366L33.0793 11.7535Z" fill="#BCBBC9"/>
<path d="M38.0473 11.7535L38.4899 13.0886H39.9223L38.7635 13.9137L39.2061 15.2487L38.0473 14.4236L36.8884 15.2487L37.3311 13.9137L36.1722 13.0886H37.6046L38.0473 11.7535Z" fill="#BCBBC9"/>
<path d="M43.0161 11.7535L43.4587 13.0886H44.8911L43.7323 13.9137L44.1749 15.2487L43.0161 14.4236L41.8572 15.2487L42.2999 13.9137L41.141 13.0886H42.5734L43.0161 11.7535Z" fill="#BCBBC9"/>
<path d="M48.0231 11.7535L48.4569 13.0886H49.8607L48.7251 13.9137L49.1588 15.2487L48.0231 14.4236L46.8875 15.2487L47.3213 13.9137L46.1856 13.0886H47.5893L48.0231 11.7535Z" fill="#BCBBC9"/>
<path fill-rule="evenodd" clip-rule="evenodd" d="M8.07685 35.7847C6.1625 23.8075 11.7495 11.9574 22.9344 6.86865L23.0377 7.09557C11.9653 12.1331 6.42445 23.8672 8.32299 35.7454C10.4234 48.8866 21.0248 56.7678 34.0071 57.1478L33.9998 57.397C20.9163 57.014 10.1989 49.0615 8.07685 35.7847Z" fill="#BCBBC9"/>
<path d="M20.5093 9.9254C18.4423 9.97252 16.0232 11.1381 14.5957 12.8311C15.7405 13.8941 17.5823 13.5011 18.9077 13.2837C20.7995 12.9735 22.8111 12.3725 24.5962 11.5218C23.8623 9.95939 21.8851 9.89409 20.5093 9.9254Z" fill="#BCBBC9"/>
<path d="M18.8838 7.37552C17.6595 9.28264 16.2004 11.1781 14.6126 12.8472C13.2841 11.6002 14.086 9.52495 14.6282 8.23442C15.6104 5.89599 17.9652 3.87944 20.4271 2.84766C21.1028 4.38495 19.6352 6.20496 18.8838 7.37552Z" fill="#BCBBC9"/>
<path d="M14.5279 15.2734C12.5925 15.9614 10.9294 17.8981 10.0943 19.8424C11.486 20.4895 13.0682 19.555 14.2256 18.9328C15.8149 18.0785 17.4363 16.8997 18.712 15.5355C17.5593 14.3192 15.8091 14.8181 14.5279 15.2734Z" fill="#BCBBC9"/>
<path d="M12.1819 13.3677C11.7582 15.5429 11.0479 17.7974 10.115 19.8523C8.48665 19.0843 8.54865 16.8848 8.6184 15.485C8.73744 13.0958 10.0741 10.3713 11.935 8.63989C13.0742 9.86129 12.4518 11.9821 12.1819 13.3677Z" fill="#BCBBC9"/>
<path d="M10.8039 22.1779C9.19118 23.4502 8.21365 25.8079 7.98724 27.9134C9.51286 28.0885 10.7323 26.7001 11.6397 25.7476C12.875 24.4507 14.0444 22.824 14.7871 21.1222C13.3328 20.3288 11.8544 21.3492 10.8039 22.1779Z" fill="#BCBBC9"/>
<path d="M8.00979 21.1039C8.29737 23.3005 8.29799 25.6768 8.01031 27.9162C6.23607 27.6983 5.64759 25.568 5.29998 24.2316C4.69982 21.9248 5.1022 18.9451 6.27131 16.7025C7.73234 17.5113 7.82606 19.6999 8.00979 21.1039Z" fill="#BCBBC9"/>
<path d="M9.53828 29.7145C8.26212 31.5839 7.81334 34.5135 8.38725 36.8683C10.0737 36.469 10.9096 34.5597 11.5809 33.2113C12.4729 31.4192 13.227 29.3284 13.4969 27.2772C11.6678 26.8965 10.3789 28.483 9.53828 29.7145Z" fill="#BCBBC9"/>
<path d="M6.18821 29.5255C7.18248 31.8275 7.95841 34.3611 8.41246 36.8626C6.47837 37.2781 5.08636 35.2472 4.27768 33.9006C2.83793 31.5034 2.4185 28.1803 2.94592 25.3126C4.71612 25.6676 5.58236 28.1233 6.18821 29.5255Z" fill="#BCBBC9"/>
<path d="M10.431 37.848C9.74579 40.1157 10.2221 43.1987 11.6094 45.3307C13.134 44.338 13.345 42.1534 13.5611 40.5869C13.846 38.5199 13.9801 36.23 13.6262 34.0865C11.6762 34.3355 10.8887 36.333 10.431 37.848Z" fill="#BCBBC9"/>
<path d="M7.04228 38.8188C8.75307 40.7818 10.3312 43.02 11.6327 45.3159C9.86752 46.4179 7.7962 44.9124 6.53998 43.8471C4.31139 41.9572 2.86431 38.7451 2.52124 35.7168C4.37587 35.4676 6.01029 37.6345 7.04228 38.8188Z" fill="#BCBBC9"/>
<path d="M14.0265 45.5665C14.1735 48.2062 15.892 50.976 18.1802 52.5526C19.2853 51.0397 18.5926 48.7216 18.2157 47.1035C17.7082 44.9249 17.0059 42.6564 15.9621 40.6434C14.142 41.6053 13.9296 43.8282 14.0265 45.5665Z" fill="#BCBBC9"/>
<path d="M10.9489 47.7963C13.428 49.1738 15.8999 50.7994 18.1982 52.5291C16.8218 54.3415 14.0707 53.6188 12.3653 53.0362C9.35993 52.0096 6.6806 49.3033 5.28116 46.2966C7.0555 45.3826 9.48445 46.9825 10.9489 47.7963Z" fill="#BCBBC9"/>
<path d="M21.087 52.0153C22.5749 54.7307 25.9656 56.5021 29.1586 56.9286C29.5023 54.9545 27.3663 52.9999 26.2023 51.7213C24.5452 49.9009 22.8184 48.0117 20.8823 46.4377C19.4318 48.1219 20.1987 50.3941 21.087 52.0153Z" fill="#BCBBC9"/>
<path d="M18.9621 55.4567C22.3443 55.8083 25.7838 56.3145 29.1641 56.8983C28.8414 59.389 24.8888 59.791 23.0944 59.938C19.4152 60.2396 15.3224 58.7606 12.4725 56.2709C13.888 54.6054 17.1605 55.2694 18.9621 55.4567Z" fill="#BCBBC9"/>
<path d="M25.4766 4.77811C23.2059 5.42591 20.5479 6.65485 19.2349 8.92343C21.6182 8.66365 23.9607 7.8156 26.2515 7.16945C28.8175 6.4456 31.5193 5.90424 34.0037 4.90511C31.2829 3.8166 28.0756 4.03659 25.4766 4.77811Z" fill="#BCBBC9"/>
<path fill-rule="evenodd" clip-rule="evenodd" d="M69.4068 35.7454C71.305 23.8672 65.7643 12.1333 54.6921 7.09557L54.7955 6.86865C65.9803 11.9575 71.5675 23.8075 69.6528 35.7847C67.5313 49.0615 56.8136 57.014 43.7301 57.397L43.7229 57.1478C56.7051 56.7678 67.306 48.8866 69.4068 35.7454Z" fill="#BCBBC9"/>
<path d="M57.2207 9.9254C59.2874 9.97252 61.7064 11.1381 63.1345 12.8311C61.9895 13.8941 60.1471 13.5011 58.8224 13.2837C56.9303 12.9735 54.9184 12.3725 53.1339 11.5218C53.8675 9.95939 55.8443 9.89409 57.2207 9.9254Z" fill="#BCBBC9"/>
<path d="M58.8462 7.37552C60.0707 9.28264 61.5297 11.1781 63.1169 12.8472C64.4458 11.6002 63.6439 9.52495 63.1014 8.23442C62.1198 5.89599 59.7648 3.87944 57.3024 2.84766C56.6266 4.38495 58.0949 6.20496 58.8462 7.37552Z" fill="#BCBBC9"/>
<path d="M63.2027 15.2734C65.1381 15.9614 66.8007 17.8981 67.6357 19.8424C66.2438 20.4895 64.6617 19.555 63.5044 18.9328C61.9151 18.0785 60.2938 16.8997 59.0187 15.5355C60.1709 14.3192 61.9213 14.8181 63.2027 15.2734Z" fill="#BCBBC9"/>
<path d="M65.5484 13.3677C65.972 15.5429 66.6819 17.7974 67.615 19.8523C69.2436 19.0843 69.1816 16.8848 69.1113 15.485C68.9925 13.0958 67.6564 10.3713 65.7953 8.63989C64.6556 9.86129 65.2787 11.9821 65.5484 13.3677Z" fill="#BCBBC9"/>
<path d="M66.9258 22.1779C68.5388 23.4502 69.5164 25.8079 69.7427 27.9134C68.2175 28.0885 66.9981 26.7001 66.0909 25.7476C64.855 24.4507 63.6853 22.824 62.9433 21.1222C64.3972 20.3288 65.8759 21.3492 66.9258 22.1779Z" fill="#BCBBC9"/>
<path d="M69.721 21.1039C69.4327 23.3002 69.4327 25.6768 69.7199 27.9162C71.4942 27.6983 72.0832 25.568 72.4304 24.2316C73.0307 21.9248 72.6277 18.9451 71.459 16.7025C69.9979 17.5113 69.9039 19.6999 69.721 21.1039Z" fill="#BCBBC9"/>
<path d="M68.1916 29.7145C69.4678 31.5839 69.9162 34.5135 69.3427 36.8683C67.6563 36.469 66.8204 34.5598 66.1487 33.2113C65.2569 31.4192 64.5026 29.3284 64.2329 27.2772C66.0619 26.8965 67.3515 28.483 68.1916 29.7145Z" fill="#BCBBC9"/>
<path d="M71.5417 29.5255C70.5476 31.8275 69.7716 34.3611 69.3179 36.8626C71.2513 37.2781 72.6432 35.2472 73.4523 33.9006C74.8917 31.5034 75.3113 28.1803 74.7843 25.3126C73.0142 25.6676 72.1472 28.1233 71.5417 29.5255Z" fill="#BCBBC9"/>
<path d="M67.2988 37.848C67.9839 40.1157 67.5086 43.1987 66.1208 45.3307C64.5966 44.338 64.3848 42.1534 64.1688 40.5869C63.8847 38.5199 63.7503 36.23 64.1037 34.0865C66.0536 34.3355 66.841 36.333 67.2988 37.848Z" fill="#BCBBC9"/>
<path d="M70.6871 38.8188C68.9769 40.7819 67.399 43.02 66.097 45.3159C67.862 46.4179 69.9338 44.9124 71.1903 43.8471C73.4182 41.9572 74.8659 38.7451 75.209 35.7168C73.3541 35.4676 71.7194 37.6345 70.6871 38.8188Z" fill="#BCBBC9"/>
<path d="M63.7028 45.5665C63.5561 48.2062 61.8376 50.976 59.5498 52.5526C58.4442 51.0397 59.1375 48.7217 59.5137 47.1035C60.021 44.9249 60.7237 42.6564 61.7674 40.6434C63.5881 41.6053 63.7999 43.8282 63.7028 45.5665Z" fill="#BCBBC9"/>
<path d="M66.7811 47.7963C64.3021 49.1738 61.8304 50.7994 59.5323 52.5291C60.9087 54.3415 63.6594 53.6188 65.3644 53.0362C68.3704 52.0096 71.0498 49.3033 72.4489 46.2966C70.6747 45.3826 68.2453 46.9825 66.7811 47.7963Z" fill="#BCBBC9"/>
<path d="M56.6431 52.0153C55.1551 54.7307 51.7647 56.5021 48.5713 56.9286C48.2276 54.9545 50.3635 52.9999 51.5281 51.7213C53.1845 49.9009 54.9112 48.0117 56.8477 46.4377C58.2985 48.1219 57.5307 50.3941 56.6431 52.0153Z" fill="#BCBBC9"/>
<path d="M58.7676 55.4567C55.3855 55.8083 51.9466 56.3145 48.5657 56.8983C48.8885 59.389 52.8415 59.791 54.6353 59.938C58.315 60.2396 62.4081 58.7606 65.257 56.2709C63.8423 54.6054 60.5698 55.2694 58.7676 55.4567Z" fill="#BCBBC9"/>
<path d="M52.2535 4.77811C54.5237 5.42591 57.1825 6.65485 58.4948 8.92343C56.112 8.66365 53.7694 7.8156 51.4785 7.16945C48.9125 6.4456 46.2107 5.90424 43.7263 4.90511C46.4472 3.8166 49.6543 4.03659 52.2535 4.77811Z" fill="#BCBBC9"/>
<path d="M40.3416 3.60415L39.1766 1.03333L38.0334 3.55631L35.3747 1.90794L37.0831 5.49805H41.3318L42.9785 1.90794L40.3416 3.60415Z" fill="#BCBBC9"/>
<path d="M41.3045 6.05591H37.0491V6.68386H41.3045V6.05591Z" fill="#BCBBC9"/>
<path d="M39.4809 54.6342L40.1666 56.7444H42.3855L40.5904 58.0486L41.276 60.1589L39.4809 58.8547L37.6858 60.1589L38.3715 58.0486L36.5764 56.7444H38.7953L39.4809 54.6342Z" fill="#BCBBC9"/>
</svg>
